<svg class="fill-blue10 min-h-[100%]" xmlns="http://www.w3.org/2000/svg" viewBox="0 0 604 397" data-testid="blob-pattern-svg"><path data-testid="blob-pattern-path" d="M154.964 258.019c0-43.057 34.363-78.001 77.474-78.001h1.249c42.486 0 77.474-34.944 77.474-77.377v-1.248c0-43.056 34.989-77.376 77.475-77.376h.624c43.111 0 77.475-34.32 77.475-77.377v-1.248c0-42.432 34.988-77.377 77.474-77.377h1.249c42.486 0 77.474 34.945 77.474 77.377V334.77c0 86.737-70.601 156.625-156.822 156.625H76.24c-42.486 0-77.474-34.944-77.474-77.376v-1.248c0-43.057 34.988-77.377 78.099-77.377 43.11.624 78.099-34.32 78.099-77.376Z" fill="inherit"></path></svg>