<?xml version="1.0" encoding="utf-8"?>
<svg xmlns="http://www.w3.org/2000/svg" width="56" height="66" viewBox="0 0 56 66" fill="none">
<path d="M27.0201 46.1899C27.2962 46.1899 27.5201 45.9661 27.5201 45.6899C27.5201 45.4138 27.2962 45.1899 27.0201 45.1899V46.1899ZM27.0201 25.5414C27.2962 25.5414 27.5201 25.3176 27.5201 25.0414C27.5201 24.7653 27.2962 24.5414 27.0201 24.5414V25.5414ZM36.4509 45.1899C36.1748 45.1899 35.9509 45.4138 35.9509 45.6899C35.9509 45.9661 36.1748 46.1899 36.4509 46.1899V45.1899ZM36.4509 24.5414C36.1748 24.5414 35.9509 24.7653 35.9509 25.0414C35.9509 25.3176 36.1748 25.5414 36.4509 25.5414V24.5414ZM55 15.0242H55.5C55.5 14.8917 55.4474 14.7647 55.3539 14.6709L55 15.0242ZM41 1L41.3539 0.646752C41.2601 0.552797 41.1328 0.5 41 0.5V1ZM54.9 56.9965L55.2539 56.6433C55.1109 56.5001 54.8958 56.4572 54.7089 56.5345C54.5219 56.6119 54.4 56.7942 54.4 56.9965H54.9ZM20.3984 35.8657H21.3014V34.8657H20.3984V35.8657ZM21.3014 35.8657C22.3023 35.8657 23.1089 36.7495 23.1089 37.7403H24.1089C24.1089 36.2532 22.9089 34.8657 21.3014 34.8657V35.8657ZM23.1089 42.1797C23.1089 44.4039 24.8243 46.1899 27.0201 46.1899V45.1899C25.4034 45.1899 24.1089 43.8788 24.1089 42.1797H23.1089ZM21.3014 35.8657C22.9089 35.8657 24.1089 34.4782 24.1089 32.9911H23.1089C23.1089 33.9818 22.3023 34.8657 21.3014 34.8657V35.8657ZM24.1089 28.5517C24.1089 26.8526 25.4034 25.5414 27.0201 25.5414V24.5414C24.8243 24.5414 23.1089 26.3275 23.1089 28.5517H24.1089ZM43.0726 34.8657H42.1696V35.8657H43.0726V34.8657ZM42.1696 34.8657C40.5621 34.8657 39.3621 36.2532 39.3621 37.7403H40.3621C40.3621 36.7495 41.1687 35.8657 42.1696 35.8657V34.8657ZM39.3621 42.1797C39.3621 43.8788 38.0676 45.1899 36.4509 45.1899V46.1899C38.6467 46.1899 40.3621 44.4039 40.3621 42.1797H39.3621ZM42.1696 34.8657C41.1686 34.8657 40.3621 33.9818 40.3621 32.9911H39.3621C39.3621 34.4782 40.5621 35.8657 42.1696 35.8657V34.8657ZM40.3621 28.5517C40.3621 26.3275 38.6467 24.5414 36.4509 24.5414V25.5414C38.0676 25.5414 39.3621 26.8526 39.3621 28.5517H40.3621ZM23.1089 37.7403V42.1797H24.1089V37.7403H23.1089ZM24.1089 32.9911V28.5517H23.1089V32.9911H24.1089ZM39.3621 37.7403V42.1797H40.3621V37.7403H39.3621ZM40.3621 32.9911V28.5517H39.3621V32.9911H40.3621ZM55.3539 14.6709L41.3539 0.646752L40.6461 1.35325L54.6461 15.3774L55.3539 14.6709ZM41 0.5H9V1.5H41V0.5ZM9 0.5C7.62304 0.5 6.5 1.62623 6.5 3.00345H7.5C7.5 2.17688 8.17696 1.5 9 1.5V0.5ZM6.5 3.00345V56.9965H7.5V3.00345H6.5ZM6.5 56.9965C6.5 58.3738 7.62304 59.5 9 59.5V58.5C8.17696 58.5 7.5 57.8231 7.5 56.9965H6.5ZM9 59.5H52.9V58.5H9V59.5ZM52.9 59.5C54.277 59.5 55.4 58.3738 55.4 56.9965H54.4C54.4 57.8231 53.723 58.5 52.9 58.5V59.5ZM54.5461 57.3498C54.6687 57.4399 54.9988 57.487 55.1716 57.4168C55.25 57.3543 55.3389 57.2376 55.3596 57.1953C55.3855 57.1359 55.3938 57.0834 55.3946 57.0787C55.3998 57.0494 55.4021 57.0225 55.403 57.011C55.4054 56.9812 55.4072 56.9437 55.4087 56.9041C55.4118 56.8222 55.4148 56.7027 55.4175 56.5508C55.4231 56.2456 55.4282 55.7968 55.433 55.226C55.4426 54.0839 55.4508 52.4477 55.4578 50.4824C55.4719 46.5516 55.4812 41.3014 55.4875 36.0485C55.4937 30.7955 55.4969 25.5395 55.4984 21.5966C55.4992 19.6252 55.4996 17.9821 55.4998 16.8319C55.4999 16.2567 55.5 15.8048 55.5 15.4967C55.5 15.3426 55.5 15.2245 55.5 15.1449C55.5 15.1051 55.5 15.0749 55.5 15.0547C55.5 15.0446 55.5 15.0369 55.5 15.0318C55.5 15.0293 55.5 15.0274 55.5 15.0261C55.5 15.0255 55.5 15.025 55.5 15.0247C55.5 15.0243 55.5 15.0242 55 15.0242C54.5 15.0242 54.5 15.0243 54.5 15.0247C54.5 15.025 54.5 15.0255 54.5 15.0261C54.5 15.0274 54.5 15.0293 54.5 15.0318C54.5 15.0369 54.5 15.0446 54.5 15.0547C54.5 15.0749 54.5 15.1051 54.5 15.1448C54.5 15.2244 54.5 15.3426 54.5 15.4966C54.5 15.8047 54.4999 16.2566 54.4998 16.8317C54.4996 17.9819 54.4992 19.6249 54.4984 21.5963C54.4969 25.5389 54.4937 30.7947 54.4875 36.0473C54.4812 41.3001 54.4719 46.5492 54.4578 50.4788C54.4508 52.4438 54.4426 54.078 54.433 55.2176C54.4282 55.7877 54.4231 56.2325 54.4177 56.5326C54.4149 56.6833 54.4122 56.7944 54.4094 56.8658C54.408 56.9029 54.4069 56.9228 54.4062 56.9303C54.4057 56.9376 54.4064 56.9243 54.41 56.9037C54.4101 56.9034 54.4176 56.8539 54.4427 56.7963C54.4631 56.7549 54.5515 56.6387 54.6296 56.5765C54.802 56.5066 55.1317 56.5536 55.2539 56.6433L54.5461 57.3498Z" fill="white"/>
<path d="M55 15H42.7872C41.7943 15 41 14.2 41 13.2V1C45.766 5.7 50.3333 10.3 55 15Z" fill="#00ED64" stroke="white" stroke-miterlimit="10" stroke-linecap="round" stroke-linejoin="round"/>
<path d="M8.91649 59.0898C7.8142 59.0898 6.91232 58.1883 6.91232 57.0864V7H3.00418C1.90188 7 1 7.90155 1 9.00345V62.9965C1 64.0984 1.90188 65 3.00418 65H46.9958C48.0981 65 49 64.0984 49 62.9965C49 62.9965 49 59.6908 49 58.9896H8.91649V59.0898Z" stroke="white" stroke-miterlimit="10" stroke-linecap="round" stroke-linejoin="round"/>
</svg>