<?xml version="1.0" encoding="utf-8"?>
<svg xmlns="http://www.w3.org/2000/svg" width="67" height="57" viewBox="0 0 67 57" fill="none">
<path d="M14 8V5C14 2.79086 15.7909 1 18 1H60C62.2091 1 64 2.79086 64 5V29C64 31.2091 62.2091 33 60 33H59M39 33H45" stroke="#001E2B"/>
<path d="M37.3033 14.4776L37.669 14.1365L37.6616 14.1289L37.3033 14.4776ZM37.3033 15.5224L37.6617 15.8712L37.6689 15.8635L37.3033 15.5224ZM39.9025 22.4303H49V21.4303H39.9025V22.4303ZM30.6417 8.3487L36.945 14.8263L37.6616 14.1289L31.3583 7.6513L30.6417 8.3487ZM36.9377 14.8187C37.0184 14.9052 37.0184 15.0948 36.9377 15.1813L37.6689 15.8635C38.108 15.3928 38.108 14.6072 37.6689 14.1365L36.9377 14.8187ZM36.945 15.1737L30.6417 21.6513L31.3583 22.3487L37.6616 15.8711L36.945 15.1737Z" fill="#001E2B"/>
<path d="M8.00004 30.6829V51.1221C8.00004 52.0277 7.63133 52.8962 6.97495 53.5365C6.31858 54.1769 5.42835 54.5366 4.5001 54.5366C3.57184 54.5366 2.68161 54.1769 2.02524 53.5365C1.36886 52.8962 1 52.0277 1 51.1221V33.971C0.99919 32.1771 1.36084 30.4007 2.06412 28.7432C2.7674 27.0858 3.79851 25.5798 5.09869 24.3113C6.39887 23.0429 7.94258 22.0369 9.6415 21.3508C11.3404 20.6647 13.1613 20.3119 15.0001 20.3127C18.7131 20.3127 22.274 21.7517 24.8995 24.3131C27.525 26.8745 29 30.3486 29 33.971V51.116C29 52.0216 28.6313 52.8901 27.9749 53.5305C27.3185 54.1708 26.4283 54.5306 25.5001 54.5306C24.5718 54.5306 23.6816 54.1708 23.0252 53.5305C22.3688 52.8901 22 52.0216 22 51.116V47.7436M7.99926 47.8761L8.00004 56H21.9808V30.6588M21.6143 14.188C21.6143 17.6056 18.7746 20.3761 15.2715 20.3761C11.7684 20.3761 8.92859 17.6056 8.92859 14.188C8.92859 10.7705 11.7684 8 15.2715 8C18.7746 8 21.6143 10.7705 21.6143 14.188Z" stroke="#001E2B" stroke-miterlimit="10"/>
<path d="M52 42C55.866 42 59 38.866 59 35C59 31.134 55.866 28 52 28C48.134 28 45 31.134 45 35C45 38.866 48.134 42 52 42Z" fill="#00ED64" stroke="#001E2B" stroke-miterlimit="10"/>
<path d="M66 56H38C38 48.3 44.3 42 52 42C59.8167 42 66 48.1833 66 56Z" fill="#00ED64" stroke="#001E2B" stroke-miterlimit="10" stroke-linejoin="round"/>
<path d="M32 42C35.866 42 39 38.866 39 35C39 31.134 35.866 28 32 28C28.134 28 25 31.134 25 35C25 38.866 28.134 42 32 42Z" fill="#00ED64" stroke="#001E2B" stroke-miterlimit="10"/>
<path d="M46 56H18C18 48.3 24.3 42 32 42C39.7 42 46 48.1833 46 56Z" fill="#00ED64" stroke="#001E2B" stroke-miterlimit="10" stroke-linecap="round" stroke-linejoin="round"/>
</svg>